# xmcd
#
# Track frame offsets: 
#        150
#        14710
#        27975
#        39972
#        54406
#        69137
#        81303
#        97792
#        119512
#        134384
#        140636
#        158813
#        174836
#        186140
#        190786
#        193647
#        215440
#
# Disc length: 3043 seconds
#
# Revision: 1
# Processed by: cddbd v1.5.2PL0 Copyright (c) Steve Scherf et al.
# Submitted via: ExactAudioCopy v1.0b3
#
DISCID=e40be111
DTITLE=Sanseverino - Honky Tonk
DYEAR=2013
DGENRE=Chanson
TTITLE0=On ze route
TTITLE1=J'vous raconte ma vie
TTITLE2=Swing 2012
TTITLE3=L'avion
TTITLE4=Plus jamais
TTITLE5=Les marrons
TTITLE6=Le honky tonk du tank
TTITLE7=Carte postale à ma cousine qui habite au bord de la méditerran
TTITLE7=née
TTITLE8=Le vieux
TTITLE9=Russian lullaby
TTITLE10=Nathalie
TTITLE11=Tout est dans mon sac
TTITLE12=Freddy
TTITLE13=Lonesome moonlight waltz
TTITLE14=La valse chinoise
TTITLE15=Les rockers d'aujourd'hui aiment la java
TTITLE16=Salt creek
EXTD=
EXTT0=
EXTT1=
EXTT2=
EXTT3=
EXTT4=
EXTT5=
EXTT6=
EXTT7=
EXTT8=
EXTT9=
EXTT10=
EXTT11=
EXTT12=
EXTT13=
EXTT14=
EXTT15=
EXTT16=
PLAYORDER=
